{"accessors":[{"bufferView":0,"componentType":5123,"count":40551,"max":[22905],"min":[0],"type":"SCALAR"},{"bufferView":1,"componentType":5126,"count":22906,"max":[167.498046875,1795.3251953125,6106.84765625],"min":[-17878.00390625,-3077.7158203125,-7792.1865234375],"type":"VEC3"},{"bufferView":2,"componentType":5126,"count":22906,"max":[1.0,1.0,1.0],"min":[-1.0,-1.0,-1.0],"type":"VEC3"},{"bufferView":3,"componentType":5126,"count":22906,"max":[1168.76708984375,45996.22265625],"min":[-743.14599609375,-2777.62109375],"type":"VEC2"},{"bufferView":4,"componentType":5123,"count":13374,"max":[6734],"min":[0],"type":"SCALAR"},{"bufferView":5,"componentType":5126,"count":6735,"max":[45303.42578125,4368.40576171875,9797.484375],"min":[-29226.125,-2333.5283203125,-61559.5859375],"type":"VEC3"},{"bufferView":6,"componentType":5126,"count":6735,"max":[1.0,1.0,1.0],"min":[-1.0,-1.0,-1.0],"type":"VEC3"},{"bufferView":7,"componentType":5126,"count":6735,"max":[1.0,1.0000001192092896],"min":[0.0,-0.07394266128540039],"type":"VEC2"},{"bufferView":8,"componentType":5123,"count":26496,"max":[4617],"min":[0],"type":"SCALAR"},{"bufferView":9,"componentType":5126,"count":4618,"max":[-102695.3125,2606.509521484375,135507.546875],"min":[-193305.78125,-11055.14453125,50062.2734375],"type":"VEC3"},{"bufferView":10,"componentType":5126,"count":4618,"max":[0.551929771900177,1.0,0.5584865808486938],"min":[-0.5725443363189697,0.806034505367279,-0.5242263674736023],"type":"VEC3"},{"bufferView":11,"componentType":5126,"count":4618,"max":[0.9999998807907104,0.9999998807907104],"min":[0.0,-1.1920928955078125e-07],"type":"VEC2"},{"bufferView":12,"componentType":5121,"count":360,"max":[121],"min":[0],"type":"SCALAR"},{"bufferView":13,"componentType":5126,"count":122,"max":[47007.68359375,5075.623046875,47007.68359375],"min":[-47007.68359375,-45240.2109375,-47007.68359375],"type":"VEC3"},{"bufferView":14,"componentType":5126,"count":122,"max":[1.0,7.27828984147666e-15,1.0],"min":[-1.0,-7.279230048048112e-15,-1.0],"type":"VEC3"},{"bufferView":15,"componentType":5126,"count":122,"max":[0.9833333492279053,1.0],"min":[-0.016666650772094727,0.17000001668930054],"type":"VEC2"}],"asset":{"generator":"Soft8Soft Verge3D for 3ds Max plug-in","version":"2.0"},"bufferViews":[{"buffer":0,"byteLength":81102,"byteOffset":0,"target":34963},{"buffer":0,"byteLength":274872,"byteOffset":81104,"target":34962},{"buffer":0,"byteLength":274872,"byteOffset":355976,"target":34962},{"buffer":0,"byteLength":183248,"byteOffset":630848,"target":34962},{"buffer":0,"byteLength":26748,"byteOffset":814096,"target":34963},{"buffer":0,"byteLength":80820,"byteOffset":840844,"target":34962},{"buffer":0,"byteLength":80820,"byteOffset":921664,"target":34962},{"buffer":0,"byteLength":53880,"byteOffset":1002484,"target":34962},{"buffer":0,"byteLength":52992,"byteOffset":1056364,"target":34963},{"buffer":0,"byteLength":55416,"byteOffset":1109356,"target":34962},{"buffer":0,"byteLength":55416,"byteOffset":1164772,"target":34962},{"buffer":0,"byteLength":36944,"byteOffset":1220188,"target":34962},{"buffer":0,"byteLength":360,"byteOffset":1257132,"target":34963},{"buffer":0,"byteLength":1464,"byteOffset":1257492,"target":34962},{"buffer":0,"byteLength":1464,"byteOffset":1258956,"target":34962},{"buffer":0,"byteLength":976,"byteOffset":1260420,"target":34962}],"buffers":[{"byteLength":1261396,"uri":"Menu.bin"}],"cameras":[{"extensions":{"S8S_v3d_camera":{"controls":"ORBIT","enablePan":true,"moveSpeed":1.0,"orbitMaxDistance":200000.0,"orbitMaxPolarAngle":1.2217304763960306,"orbitMaxZoom":100.0,"orbitMinDistance":0.0,"orbitMinPolarAngle":0.0,"orbitMinZoom":0.009999999776482582,"orbitTarget":4,"rotateSpeed":1.0,"viewportFitInitialAspect":1.7777777777777777,"viewportFitType":"VERTICAL"}},"name":"Camera001","perspective":{"aspectRatio":1.7777777777777777,"yfov":0.5774044167349055,"zfar":334333.99586242187,"znear":1.0},"type":"perspective"}],"extensions":{"S8S_v3d_clipping_planes":{},"S8S_v3d_curves":{},"S8S_v3d_light_probes":{},"S8S_v3d_lights":{"lights":[{"color":[1.0,1.0,1.0],"decay":0,"intensity":2.8274333133294083,"name":"Omni001","profile":"max","type":"point"},{"color":[1.0,1.0,1.0],"decay":0,"intensity":2.199114820062152,"name":"Omni002","profile":"max","type":"point"},{"color":[1.0,1.0,1.0],"decay":0,"intensity":2.199114820062152,"name":"Omni003","profile":"max","type":"point"},{"color":[0.0,0.0,0.0],"intensity":1,"name":"__AMBIENT__","profile":"max","type":"ambient"}]}},"extensionsUsed":["S8S_v3d_texture","S8S_v3d_materials","S8S_v3d_camera","S8S_v3d_lights","S8S_v3d_node","S8S_v3d_light_probes","S8S_v3d_clipping_planes","S8S_v3d_curves","S8S_v3d_scene"],"images":[{"uri":"Terreno01.jpg"},{"uri":"cielo hdr.jpg"}],"materials":[{"doubleSided":false,"extensions":{"S8S_v3d_materials":{"gtaoVisible":true,"nodeGraph":{"edges":[{"fromNode":1,"fromOutput":0,"toInput":0,"toNode":0},{"fromNode":1,"fromOutput":1,"toInput":1,"toNode":0}],"nodes":[{"inputs":[[1,1,1,1]],"is_active_output":true,"name":"MaxOutput","outputs":[],"type":"OUTPUT_MX"},{"IOR":1.5,"inputFactors":[0,0,0,0,0,0,0,0,0,0,0,0],"inputs":[[0.5607843137254902,0.5607843137254902,0.5607843137254902,1.0],[0.5607843137254902,0.5607843137254902,0.5607843137254902,1.0],[0.9,0.9,0.9,1.0],0.1,0.0,[0.0,0.0,0.0,1.0],1.0,[0,0,0,0],[0,0,0],[0,0,0,0],[0,0,0,0],0],"is_active_output":false,"name":"Material #2","outputs":[[0,0,0,0]],"selfIllumColorOn":false,"type":"MATERIAL_MX"}]},"profile":"max"}},"name":"Material #2"},{"doubleSided":false,"extensions":{"S8S_v3d_materials":{"gtaoVisible":true,"nodeGraph":{"edges":[{"fromNode":1,"fromOutput":0,"toInput":0,"toNode":0},{"fromNode":1,"fromOutput":1,"toInput":1,"toNode":0},{"fromNode":2,"fromOutput":0,"toInput":1,"toNode":1}],"nodes":[{"inputs":[[1,1,1,1]],"is_active_output":true,"name":"MaxOutput","outputs":[],"type":"OUTPUT_MX"},{"IOR":1.5,"inputFactors":[0,1.0,0,0,0,0,0,0,0,0,0,0],"inputs":[[0.5880000095741421,0.5880000095741421,0.5880000095741421,1.0],[0.5880000095741421,0.5880000095741421,0.5880000095741421,1.0],[0.9,0.9,0.9,1.0],0.1,0.0,[0.0,0.0,0.0,1.0],1.0,[0,0,0,0],[0,0,0],[0,0,0,0],[0,0,0,0],0],"is_active_output":false,"name":"Material #1","outputs":[[0,0,0,0]],"selfIllumColorOn":false,"type":"MATERIAL_MX"},{"alphaAsMono":false,"alphaAsRGB":false,"alphaSource":"NONE","axis":"XY","clampToEdgeNoExtend":[false,false],"inputs":[0.0,0.0,1.0,1.0,0.0],"is_active_output":false,"mapping":"EXPLICIT_MAP_CHANNEL","name":"Map #1","outputs":[[0,0,0,0]],"texture":0,"type":"BITMAP_MX","uvIndex":0}]},"profile":"max"}},"name":"Material #1"},{"doubleSided":false,"extensions":{"S8S_v3d_materials":{"gtaoVisible":true,"nodeGraph":{"edges":[{"fromNode":1,"fromOutput":0,"toInput":0,"toNode":0},{"fromNode":1,"fromOutput":1,"toInput":1,"toNode":0},{"fromNode":2,"fromOutput":0,"toInput":1,"toNode":1}],"nodes":[{"inputs":[[1,1,1,1]],"is_active_output":true,"name":"MaxOutput","outputs":[],"type":"OUTPUT_MX"},{"IOR":1.5,"inputFactors":[0,1.0,0,0,0,0,0,0,0,0,0,0],"inputs":[[0.30196078431372547,0.027450980392156862,0.027450980392156862,1.0],[0.30196078431372547,0.027450980392156862,0.027450980392156862,1.0],[0.9,0.9,0.9,1.0],0.0,0.0,[0.0,0.0,0.0,1.0],1.0,[0,0,0,0],[0,0,0],[0,0,0,0],[0,0,0,0],0],"is_active_output":false,"name":"Material boton1df","outputs":[[0,0,0,0]],"selfIllumColorOn":false,"type":"MATERIAL_MX"},{"alphaAsMono":false,"alphaAsRGB":false,"alphaSource":"NONE","axis":"XY","clampToEdgeNoExtend":[false,false],"inputs":[0.0,0.0,1.0,1.0,0.0],"is_active_output":false,"mapping":"EXPLICIT_MAP_CHANNEL","name":"Map #7146","outputs":[[0,0,0,0]],"texture":1,"type":"BITMAP_MX","uvIndex":0}]},"profile":"max"}},"name":"Material boton1df"},{"extensions":{"S8S_v3d_materials":{"nodeGraph":{"edges":[],"nodes":[{"inputs":[[0.0,0.0,0.0,1]],"is_active_output":true,"name":"World Output","outputs":[],"type":"OUTPUT_MX"}]},"profile":"max"}},"name":"Verge3D_Environment"}],"meshes":[{"name":"Flotacion001","primitives":[{"attributes":{"NORMAL":2,"POSITION":1,"TEXCOORD_0":3},"indices":0,"material":0,"mode":4}]},{"name":"pCylinder896","primitives":[{"attributes":{"NORMAL":6,"POSITION":5,"TEXCOORD_0":7},"indices":4,"material":0,"mode":4}]},{"name":"Plane003","primitives":[{"attributes":{"NORMAL":10,"POSITION":9,"TEXCOORD_0":11},"indices":8,"material":1,"mode":4}]},{"name":"Cylinder001","primitives":[{"attributes":{"NORMAL":14,"POSITION":13,"TEXCOORD_0":15},"indices":12,"material":2,"mode":4}]}],"nodes":[{"extensions":{"S8S_v3d_lights":{"light":0},"S8S_v3d_node":{"hidden":false}},"name":"Omni001","rotation":[-0.7071068286895752,-0.0,-0.0,0.7071067690849304],"scale":[1.0,1.0,1.0],"translation":[-143654.421875,42809.09375,76234.6484375]},{"extensions":{"S8S_v3d_lights":{"light":1},"S8S_v3d_node":{"hidden":false}},"name":"Omni002","rotation":[-0.7071068286895752,-0.0,-0.0,0.7071067690849304],"scale":[1.0,1.0,1.0],"translation":[140457.65625,42809.09375,79765.984375]},{"extensions":{"S8S_v3d_lights":{"light":2},"S8S_v3d_node":{"hidden":false}},"name":"Omni003","rotation":[-0.7071068286895752,-0.0,-0.0,0.7071067690849304],"scale":[1.0,1.0,1.0],"translation":[-1437.8697509765625,42809.09375,-128582.8828125]},{"camera":0,"extensions":{"S8S_v3d_node":{"hidden":false}},"name":"Camera001","rotation":[-0.3967072069644928,0.20161740481853485,0.08976577967405319,0.8910195827484131],"scale":[1.0000001192092896,1.0,0.9999999403953552],"translation":[38160.18359375,82784.0703125,69750.546875]},{"extensions":{"S8S_v3d_node":{"hidden":false}},"name":"Camera001.Target","rotation":[0.34953150153160095,0.2060389518737793,-0.07909097522497177,0.9105604290962219],"scale":[0.9999998807907104,1.0000001192092896,0.9999998807907104],"translation":[10571.5205078125,11612.265625,11909.779296875]},{"extensions":{"S8S_v3d_node":{"frustumCulling":true,"hidden":false,"hidpiCompositing":false,"renderOrder":0,"useCastShadows":true,"useShadows":true}},"extras":{"customProps":{"MapChannel:1":"UVChannel_1"}},"mesh":0,"name":"Flotacion001","rotation":[6.123233601181349e-17,1.0,-8.029651860037298e-24,-4.371138828673793e-08],"translation":[-27142.87109375,-16119.5498046875,-19747.1875]},{"extensions":{"S8S_v3d_node":{"frustumCulling":true,"hidden":false,"hidpiCompositing":false,"renderOrder":0,"useCastShadows":true,"useShadows":true}},"extras":{"customProps":{"MapChannel:1":"map1"}},"mesh":1,"name":"pCylinder896","rotation":[-4.683861154552017e-31,-8.742277657347586e-08,-4.094761427793756e-38,1.0],"translation":[-14027.197265625,-18020.07421875,8530.046875]},{"extensions":{"S8S_v3d_node":{"frustumCulling":true,"hidden":false,"hidpiCompositing":false,"renderOrder":0,"useCastShadows":true,"useShadows":true}},"extras":{"customProps":{"MapChannel:1":"UVChannel_1"}},"mesh":2,"name":"Plane003","scale":[2.5641660690307617,2.5641660690307617,2.5641660690307617],"translation":[375155.21875,0.0,-251920.1875]},{"extensions":{"S8S_v3d_node":{"frustumCulling":true,"hidden":false,"hidpiCompositing":false,"renderOrder":0,"useCastShadows":true,"useShadows":true}},"mesh":3,"name":"Cylinder001","rotation":[-0.0,0.9762960076332092,0.0,-0.21643966436386108],"scale":[2.848308801651001,2.848308801651001,2.848308801651001],"translation":[-1703.322265625,22963.953125,-10843.595703125]},{"extensions":{"S8S_v3d_lights":{"light":3}},"name":"__AMBIENT__","rotation":[-0.7071068286895752,-0.0,-0.0,0.7071067690849304],"scale":[1.0,1.0,1.0],"translation":[0.0,0.0,0.0]}],"samplers":[{}],"scene":0,"scenes":[{"extensions":{"S8S_v3d_scene":{"aaMethod":"AUTO","iblEnvironmentMode":"PMREM","physicallyCorrectLights":true,"pmremMaxTileSize":1024,"postprocessing":[{"edgeGlow":0.0,"edgeStrength":3.0,"edgeThickness":1.0,"hiddenEdgeColor":[0.09803921568627451,0.09803921568627451,0.09803921568627451,1.0],"pulsePeriod":0.0,"renderHiddenEdge":true,"type":"outline","visibleEdgeColor":[0.21176470588235294,0.9921568627450981,1.0,1.0]}],"shadowMap":{"esmDistanceScale":0.30000001192092896,"renderReverseSided":false,"renderSingleSided":true,"type":"PCFPOISSON"},"unitsScaleFactor":0.01,"worldMaterial":3}},"extras":{"animFrameRate":30,"coordSystem":"Z_UP_RIGHT"},"name":"Scene","nodes":[0,1,2,3,4,5,6,7,8,9]}],"textures":[{"extensions":{"S8S_v3d_texture":{"colorSpace":"srgb"}},"name":"Map #1","sampler":0,"source":0},{"extensions":{"S8S_v3d_texture":{"anisotropy":1,"colorSpace":"srgb"}},"name":"Map #7146","sampler":0,"source":1}]}
